HIERARCHY
ROOT Hips
{
	OFFSET	0.00	0.00	0.00
	CHANNELS 6 Xposition Yposition Zposition Zrotation Xrotation Yrotation
	JOINT Spine
	{
		OFFSET	 0.00	0.01	 0.00
		CHANNELS 3 Zrotation Xrotation Yrotation
		JOINT Spine1
		{
			OFFSET	 0.00	 2.45913012437421	 0.00
			CHANNELS 3 Zrotation Xrotation Yrotation
            JOINT Neck
            {
                OFFSET	 0.00	 2.48462964506057	 0.00
                CHANNELS 3 Zrotation Xrotation Yrotation
                JOINT Head
                {
                    OFFSET	 0.00	 0.927524780924562	 0.00
                    CHANNELS 3 Zrotation Xrotation Yrotation
                    End Site 
                    {
                        OFFSET	 0.00	 1.14999962169752	 0.00
                    }
                }
            }
			JOINT LeftShoulder
			{
				OFFSET	 0.00	 2.48462964506057	 0.00
				CHANNELS 3 Zrotation Xrotation Yrotation
				JOINT LeftUpArm
				{
					OFFSET	 0.00	 1.24881979654096	 0.00
					CHANNELS 3 Zrotation Xrotation Yrotation
					JOINT LeftForeArm
					{
						OFFSET	 0.00	2.59758046908119	 0.00
						CHANNELS 3 Zrotation Xrotation Yrotation
						JOINT LeftHand
						{
							OFFSET	 0.00	2.45542024364365	 0.00
							CHANNELS 3 Zrotation Xrotation Yrotation
							JOINT LeftHandThumb 
							{
								OFFSET	 0.00	0.00	 0.00
								CHANNELS 3 Zrotation Xrotation Yrotation
								End Site
								{
									OFFSET	 0.00	0.00	1.00000003353624
								}
							}
							JOINT L_Wrist_End 
							{
								OFFSET	 0.00	0.99999967115358	 0.00
								CHANNELS 3 Zrotation Xrotation Yrotation
								End Site 
								{
									OFFSET	 0.00	 0.00	 0.00
								}
							}
						}
					}
				}
			}
			JOINT RightShoulder
			{
				OFFSET	 0.00	 2.48462964506057	 0.00
				CHANNELS 3 Zrotation Xrotation Yrotation
				JOINT RightUpArm
				{
					OFFSET	 0.00	 1.24881979654096	 0.00
					CHANNELS 3 Zrotation Xrotation Yrotation
					JOINT RightForeArm
					{
						OFFSET	 0.00	2.59758046908119	 0.00
						CHANNELS 3 Zrotation Xrotation Yrotation
						JOINT RightHand
						{
							OFFSET	 0.00	2.45542024364365	 0.00
							CHANNELS 3 Zrotation Xrotation Yrotation
							JOINT RightHandThumb 
							{
								OFFSET	 0.00	0.00	 0.00
								CHANNELS 3 Zrotation Xrotation Yrotation
								End Site
								{
									OFFSET	 0.00	0.00	1.00000003353624
								}
							}
							JOINT R_Wrist_End 
							{
								OFFSET	 0.00	0.99999967115358	 0.00
								CHANNELS 3 Zrotation Xrotation Yrotation
								End Site 
								{
									OFFSET	 0.00	 0.00	 0.00
								}
							}
						}
					}
				}
			}
		}
	}
	JOINT LeftUpLeg
	{
		OFFSET	 1.2719394002717	 0.00	 0.00
		CHANNELS 3 Zrotation Xrotation Yrotation
		JOINT LeftLowLeg
		{
			OFFSET	 0.00	-4.3429100912261	 0.00
			CHANNELS 3 Zrotation Xrotation Yrotation
			JOINT LeftFoot
			{
				OFFSET	 0.00	-4.48767017425826	 0.00
				CHANNELS 3 Zrotation Xrotation Yrotation
				JOINT LeftToeBase
                {
                    OFFSET	 0.00	0.00	 1.51507020887566
                    CHANNELS 3 Zrotation Xrotation Yrotation
                    End Site 
                    {
                        OFFSET	 0.00	0.00	 0.75000010571191
                    }
                }
			}
		}
	}
	JOINT RightUpLeg
	{
		OFFSET	 -1.2719393604653	 0.00	 0.00
		CHANNELS 3 Zrotation Xrotation Yrotation
		JOINT RightLowLeg
		{
			OFFSET	 0.00	-4.3429100912261	 0.00
			CHANNELS 3 Zrotation Xrotation Yrotation
			JOINT RightFoot
			{
				OFFSET	 0.00	-4.48767017425826	 0.00
				CHANNELS 3 Zrotation Xrotation Yrotation
				JOINT RightToeBase
                {
                    OFFSET	 0.00	0.00	 1.51507020887566
                    CHANNELS 3 Zrotation Xrotation Yrotation
                    End Site 
                    {
                        OFFSET	 0.00	0.00	 0.749999965609858
                    }
                }   
			}
		}
	}
}
MOTION 
Frames:	17 
Frame Time: 0.02 
 2.323600006103516 6.283330078125 9.810960083007812 -158.681 81.1326 162.097 2.46074 -9.78984 -1.14471 0.484841 4.0815 -1.41902 -3.54382 29.1006 3.68812 13.7027 -53.9921 10.1209 -93.82796 -11.8729 -2.76204 -12.1477 4.15978 -27.0525 0.0 18.416 0.0 28.8895 -5.83256 24.282 0.0 0.0 0.0 0.0 0.0 0.0 100.047104 -10.8692 -1.83401 11.5605 -0.301978 37.6458 0.0 23.2057 0.0 -19.375 -1.78376 -25.5322 0.0 0.0 0.0 0.0 0.0 0.0 4.49997 -5.73849 0.78958 0.0 6.90795 0.0 -12.582 5.66677 0.619633 0.0 -36.8832 0.0 2.76847 -3.38013 4.85911 0.0 5.52307 0.0 8.50986 8.85888 -8.08895 0.0 -27.9806 0.0 
  2.3237899780273437 6.284190063476562 9.81093994140625 -158.691 81.1365 162.104 2.45793 -9.7899 -1.14485 0.481769 4.08974 -1.4185 -3.55417 29.0992 3.69549 13.6945 -53.9834 10.1035 -93.83944 -11.8705 -2.77067 -12.1475 4.14943 -27.0128 0.0 18.428 0.0 28.8077 -5.84492 24.1812 0.0 0.0 0.0 0.0 0.0 0.0 100.0519 -10.8555 -1.86453 11.567 -0.292919 37.6609 0.0 23.2077 0.0 -19.3761 -1.79103 -25.553 0.0 0.0 0.0 0.0 0.0 0.0 4.49577 -5.73891 0.800331 0.0 6.90591 0.0 -12.573 5.6751204 0.617181 0.0 -36.8821 0.0 2.76483 -3.38898 4.88545 0.0 5.53732 0.0 8.52544 8.8434 -8.10442 0.0 -27.9713 0.0 
  2.323899993896484 6.285050048828125 9.810859985351563 -158.66 81.1395 162.074 2.48731 -9.76586 -1.11934 0.42836 4.05357 -1.40054 -3.53064 29.118 3.6701 13.7106 -53.9733 10.1001 -93.8195 -11.8289 -2.73285 -12.1451 4.14735 -26.9812 0.0 18.4167 0.0 28.7409 -5.83756 24.2236 0.0 0.0 0.0 0.0 0.0 0.0 100.0867 -10.8951 -1.86255 11.5618 -0.271107 37.6403 0.0 23.1981 0.0 -19.3272 -1.85696 -25.529 0.0 0.0 0.0 0.0 0.0 0.0 4.50034 -5.74829 0.818609 0.0 6.92259 0.0 -12.5639 5.67111 0.595991 0.0 -36.872803 0.0 2.76773 -3.39573 4.8851 0.0 5.55028 0.0 8.53101 8.83979 -8.09642 0.0 -27.9761 0.0 
  2.324179992675781 6.286649780273438 9.810780029296875 -158.666 81.1456 162.075 2.48627 -9.76086 -1.11776 0.413383 4.05956 -1.39883 -3.53042 29.1146 3.66993 13.6918 -53.948 10.091 -93.83462 -11.8065 -2.71913 -12.1468 4.12737 -26.9521 0.0 18.3882 0.0 28.7642 -5.86615 24.1886 0.0 0.0 0.0 0.0 0.0 0.0 100.1012 -10.893 -1.89834 11.5706 -0.228657 37.6129 0.0 23.1955 0.0 -19.2903 -1.8457 -25.5747 0.0 0.0 0.0 0.0 0.0 0.0 4.4958 -5.75567 0.821686 0.0 6.92991 0.0 -12.5771 5.6711397 0.596192 0.0 -36.899498 0.0 2.76418 -3.41454 4.88398 0.0 5.57987 0.0 8.53827 8.828381 -8.09036 0.0 -27.9767 0.0 
  2.3243299865722657 6.287440185546875 9.810780029296875 -158.65 81.1568 162.057 2.48651 -9.74853 -1.11301 0.407359 4.05859 -1.39413 -3.53945 29.1204 3.68076 13.6921 -53.9437 10.0876 -93.8347 -11.8017 -2.71591 -12.1724 4.13573 -27.0014 0.0 18.3837 0.0 28.794 -5.89073 24.1912 0.0 0.0 0.0 0.0 0.0 0.0 100.1056 -10.8764 -1.89862 11.5782 -0.242974 37.6098 0.0 23.2163 0.0 -19.265 -1.89585 -25.6061 0.0 0.0 0.0 0.0 0.0 0.0 4.49297 -5.74309 0.798211 0.0 6.91943 0.0 -12.5749 5.67474 0.615379 0.0 -36.8723 0.0 2.76219 -3.41328 4.89045 0.0 5.58925 0.0 8.53672 8.823851 -8.09392 0.0 -27.967499 0.0 
  2.3245500183105468 6.28802001953125 9.810800170898437 -158.625 81.1609 162.034 2.48694 -9.74734 -1.10748 0.404883 4.06546 -1.38867 -3.53088 29.1203 3.6708 13.6941 -53.9423 10.087 -93.84711 -11.7989 -2.7192 -12.1781 4.15389 -27.0238 0.0 18.3702 0.0 28.7859 -5.86778 24.1958 0.0 0.0 0.0 0.0 0.0 0.0 100.1188 -10.883 -1.89642 11.5709 -0.231718 37.6113 0.0 23.1831 0.0 -19.2713 -1.81985 -25.6058 0.0 0.0 0.0 0.0 0.0 0.0 4.49336 -5.74184 0.80742 0.0 6.9187 0.0 -12.5673 5.67597 0.611664 0.0 -36.8913 0.0 2.76392 -3.4125 4.92294 0.0 5.59084 0.0 8.54988 8.82201 -8.12248 0.0 -27.9702 0.0 
  2.325019989013672 6.289329833984375 9.810880126953125 -158.563 81.1782 161.984 2.49366 -9.72561 -1.09611 0.383549 4.0583 -1.37904 -3.51017 29.1424 3.647 13.7168 -53.9524 10.0924 -93.86922 -11.774 -2.70913 -12.1587 4.16012 -26.9147 0.0 18.3569 0.0 28.7676 -5.83725 24.2198 0.0 0.0 0.0 0.0 0.0 0.0 100.132 -10.8703 -1.87874 11.5964 -0.25898 37.6187 0.0 23.1896 0.0 -19.3287 -1.8303 -25.5763 0.0 0.0 0.0 0.0 0.0 0.0 4.49171 -5.74061 0.80471 0.0 6.93361 0.0 -12.5747 5.67295 0.605386 0.0 -36.8704 0.0 2.76264 -3.39706 4.90311 0.0 5.58567 0.0 8.55013 8.833099 -8.11632 0.0 -27.9762 0.0 
  2.3251300048828125 6.28989013671875 9.810809936523437 -158.553 81.1796 161.981 2.48911 -9.72247 -1.0922 0.37884 4.0579 -1.37392 -3.47726 29.1402 3.61091 13.7115 -53.9471 10.1053 -93.86662 -11.7652 -2.69721 -12.161 4.16919 -26.8802 0.0 18.3626 0.0 28.7592 -5.84756 24.2115 0.0 0.0 0.0 0.0 0.0 0.0 100.1338 -10.8711 -1.86721 11.6118 -0.264887 37.596 0.0 23.1874 0.0 -19.2837 -1.76331 -25.6397 0.0 0.0 0.0 0.0 0.0 0.0 4.49216 -5.74959 0.806617 0.0 6.94416 0.0 -12.5719 5.67083 0.595159 0.0 -36.8754 0.0 2.76283 -3.40008 4.89341 0.0 5.5916 0.0 8.54635 8.828159 -8.11532 0.0 -27.9719 0.0 
  2.3251800537109375 6.29072021484375 9.810759887695312 -158.561 81.1772 161.996 2.48067 -9.71973 -1.08837 0.378982 4.06089 -1.36782 -3.46937 29.1241 3.61247 13.7179 -53.9342 10.115 -93.87333 -11.7492 -2.69346 -12.1644 4.1629 -26.8232 0.0 18.3584 0.0 28.7753 -5.84126 24.17 0.0 0.0 0.0 0.0 0.0 0.0 100.1462 -10.8802 -1.87226 11.6034 -0.247441 37.5651 0.0 23.1532 0.0 -19.2611 -1.74397 -25.5658 0.0 0.0 0.0 0.0 0.0 0.0 4.49171 -5.76699 0.808404 0.0 6.96041 0.0 -12.5543 5.6739397 0.588382 0.0 -36.9025 0.0 2.76199 -3.41638 4.87989 0.0 5.60985 0.0 8.55387 8.81871 -8.10468 0.0 -27.9722 0.0 
  2.3252499389648436 6.291329956054687 9.810819702148438 -158.563 81.1814 162.004 2.43391 -9.72616 -1.1236 0.458791 4.09002 -1.39097 -3.53793 29.1055 3.67834 13.6912 -53.9487 10.0865 -93.92852 -11.7888 -2.70845 -12.1693 4.16118 -26.8366 0.0 18.3627 0.0 28.7756 -5.85811 24.1782 0.0 0.0 0.0 0.0 0.0 0.0 100.1109 -10.8127 -1.86271 11.6036 -0.265597 37.5364 0.0 23.1544 0.0 -19.2604 -1.74521 -25.5818 0.0 0.0 0.0 0.0 0.0 0.0 4.48958 -5.76947 0.807905 0.0 6.96171 0.0 -12.5674 5.6800804 0.580591 0.0 -36.9075 0.0 2.75968 -3.42584 4.8834 0.0 5.63055 0.0 8.56078 8.81229 -8.10767 0.0 -27.977299 0.0 
  2.325220031738281 6.292230224609375 9.81073974609375 -158.474 81.2111 161.922 2.45321 -9.66798 -1.08557 0.408418 4.05686 -1.35766 -3.47276 29.1142 3.60979 13.7034 -53.9553 10.1223 -93.89937 -11.7216 -2.71282 -12.2034 4.15563 -26.8343 0.0 18.3649 0.0 28.7737 -5.86213 24.1909 0.0 0.0 0.0 0.0 0.0 0.0 100.158 -10.8723 -1.86188 11.5851 -0.259353 37.4882 0.0 23.1367 0.0 -19.311 -1.73425 -25.5347 0.0 0.0 0.0 0.0 0.0 0.0 4.49208 -5.74037 0.791686 0.0 6.95425 0.0 -12.5782 5.6785097 0.583886 0.0 -36.8976 0.0 2.76279 -3.41172 4.907 0.0 5.65848 0.0 8.56135 8.80097 -8.12321 0.0 -27.9764 0.0 
  2.3253900146484376 6.2927197265625 9.810750122070312 -158.471 81.2132 161.93 2.45257 -9.66172 -1.09107 0.400829 4.05997 -1.3632 -3.4971 29.1087 3.65134 13.7322 -53.9631 10.1358 -93.90558 -11.7178 -2.70518 -12.1992 4.14544 -26.7767 0.0 18.3592 0.0 28.7683 -5.86877 24.2023 0.0 0.0 0.0 0.0 0.0 0.0 100.161896 -10.8686 -1.86516 11.5937 -0.245806 37.4941 0.0 23.1502 0.0 -19.3199 -1.7413 -25.5753 0.0 0.0 0.0 0.0 0.0 0.0 4.48873 -5.74337 0.787825 0.0 6.95376 0.0 -12.569 5.68301 0.585242 0.0 -36.880898 0.0 2.76047 -3.4096 4.90331 0.0 5.65389 0.0 8.57613 8.80268 -8.12807 0.0 -27.9806 0.0 
  2.3255099487304687 6.292830200195312 9.810750122070312 -158.458 81.2136 161.929 2.45342 -9.66045 -1.09686 0.394492 4.06494 -1.36942 -3.49927 29.1003 3.65334 13.7368 -53.9651 10.1293 -93.90905 -11.7035 -2.67323 -12.1951 4.13437 -26.7689 0.0 18.3398 0.0 28.7447 -5.86126 24.2091 0.0 0.0 0.0 0.0 0.0 0.0 100.1564 -10.8748 -1.86546 11.6146 -0.225202 37.4894 0.0 23.1757 0.0 -19.3373 -1.7934 -25.5948 0.0 0.0 0.0 0.0 0.0 0.0 4.48956 -5.74676 0.797408 0.0 6.95429 0.0 -12.5485 5.6917295 0.569357 0.0 -36.8908 0.0 2.76134 -3.40729 4.89377 0.0 5.65388 0.0 8.57743 8.79766 -8.13145 0.0 -27.9715 0.0 
  2.325679931640625 6.29322021484375 9.810759887695312 -158.483 81.2063 161.973 2.4461 -9.6622 -1.09951 0.38594 4.0649 -1.37029 -3.48306 29.1083 3.63028 13.7365 -53.9695 10.1286 -93.90694 -11.6912 -2.6729 -12.2198 4.13837 -26.7584 0.0 18.3225 0.0 28.7767 -5.87192 24.1965 0.0 0.0 0.0 0.0 0.0 0.0 100.1834 -10.8748 -1.8747 11.58 -0.224151 37.4519 0.0 23.1828 0.0 -19.2364 -1.76319 -25.5067 0.0 0.0 0.0 0.0 0.0 0.0 4.48613 -5.76228 0.800857 0.0 6.95445 0.0 -12.5615 5.6991796 0.548764 0.0 -36.913902 0.0 2.75782 -3.41401 4.86067 0.0 5.65154 0.0 8.56354 8.79959 -8.12471 0.0 -27.9744 0.0 
  2.325769958496094 6.293469848632813 9.81072998046875 -158.489 81.1967 161.986 2.44008 -9.66462 -1.09916 0.392671 4.06634 -1.36831 -3.47298 29.1054 3.61363 13.7287 -53.9687 10.1219 -93.91713 -11.6937 -2.6865 -12.2311 4.15159 -26.7911 0.0 18.3191 0.0 28.7877 -5.85963 24.2068 0.0 0.0 0.0 0.0 0.0 0.0 100.1727 -10.853 -1.85596 11.5914 -0.257115 37.4321 0.0 23.1833 0.0 -19.2545 -1.76768 -25.4709 0.0 0.0 0.0 0.0 0.0 0.0 4.48706 -5.77305 0.788483 0.0 6.95112 0.0 -12.5612 5.69899 0.552764 0.0 -36.8807 0.0 2.75972 -3.42711 4.86481 0.0 5.65827 0.0 8.5698 8.79469 -8.13093 0.0 -27.9713 0.0 
  2.3259100341796874 6.2935302734375 9.810780029296875 -158.522 81.1855 162.016 2.40341 -9.69082 -1.12642 0.457127 4.10384 -1.38616 -3.51883 29.0886 3.65802 13.7137 -53.9683 10.0913 -93.96542 -11.7358 -2.70894 -12.2362 4.15636 -26.8118 0.0 18.3265 0.0 28.7744 -5.83188 24.2214 0.0 0.0 0.0 0.0 0.0 0.0 100.1525 -10.797 -1.84614 11.5694 -0.252884 37.449 0.0 23.1538 0.0 -19.222 -1.70096 -25.4225 0.0 0.0 0.0 0.0 0.0 0.0 4.48521 -5.78256 0.785831 0.0 6.94666 0.0 -12.5568 5.70411 0.559587 0.0 -36.9116 0.0 2.75605 -3.4404 4.85063 0.0 5.65625 0.0 8.56668 8.8029 -8.11366 0.0 -27.9853 0.0 
  2.3262100219726562 6.293619995117187 9.810780029296875 -158.545 81.1773 162.031 2.438 -9.67846 -1.08774 0.382879 4.08372 -1.3563 -3.45875 29.1077 3.60069 13.7515 -53.9558 10.1075 -93.93652 -11.6901 -2.66913 -12.2311 4.16573 -26.7292 0.0 18.3123 0.0 28.7388 -5.83187 24.263 0.0 0.0 0.0 0.0 0.0 0.0 100.1825 -10.8569 -1.85492 11.5657 -0.219001 37.4354 0.0 23.134 0.0 -19.2273 -1.69056 -25.4468 0.0 0.0 0.0 0.0 0.0 0.0 4.48277 -5.78336 0.788486 0.0 6.9327 0.0 -12.5494 5.7066 0.565281 0.0 -36.8881 0.0 2.75389 -3.44804 4.88042 0.0 5.65145 0.0 8.58193 8.7978 -8.12976 0.0 -27.972599 0.0 
